<svg viewBox="0 0 400 400" xmlns="http://www.w3.org/2000/svg">
  <path d="m190.6.307c-71.038 6.307-118.233 74.807-98.796 143.393 12.071 42.592 49.252 74.632 93.296 80.395 73.391 9.603 135.522-52.137 126.589-125.795-7.194-59.32-61.517-103.281-121.089-97.993m-98.7 249.915c-48.883 4.095-87.281 42.314-91.606 91.178-.427 4.827-.417 23.646.014 26.476 2.548 16.715 15.026 29.19 31.816 31.808 2.053.321 190.476.515 190.476.197 0-.066-.169-.358-.375-.65-1.304-1.845-2.942-5.99-3.674-9.293l-.451-2.038v-26.8-26.8l.457-1.454.457-1.453-.457-1.347-.457-1.346-.062-15.3c-.066-16.239-.015-17.469.874-20.889 2.725-10.482 10.923-18.451 21.666-21.06 2.064-.501 2.361-.518 10.822-.633l8.7-.118.126-3.1c.264-6.521 1.991-11.747 5.401-16.341.425-.573.773-1.091.773-1.15 0-.06-2.197-.109-4.882-.109h-4.883l-3.067 1.316c-34.399 14.763-72.478 14.73-107.347-.092l-2.878-1.224-24.722.027c-13.596.016-25.621.103-26.721.195m193.939 2.282c-5.869 1.283-10.155 5.304-11.975 11.235l-.54 1.761-.078 9.141-.078 9.142-14.534.069c-16.336.077-15.313-.012-18.734 1.645-4.017 1.947-6.845 5.313-8.234 9.803l-.557 1.8-.064 14.55-.064 14.55h84.509 84.51v-14.311c0-16.271.038-15.813-1.606-19.189-1.827-3.751-4.967-6.603-8.714-7.914-2.742-.958-3.248-.986-17.998-.986h-13.882l-.003-8.95c-.003-9.687-.049-10.211-1.132-12.85-1.813-4.419-5.299-7.583-10.165-9.227l-1.4-.473-29-.036c-23.999-.03-29.217.011-30.261.24m50.761 26.096v5.2h-21-21v-5.2-5.2h21 21zm-105.553 83.05c.058 25.006.059 25.053.491 26.577 1.613 5.682 6 9.999 11.562 11.379 1.583.393 2.358.397 73 .346l71.4-.052 1.6-.545c4.803-1.636 8.619-5.452 10.255-10.255l.545-1.6.054-25.45.055-25.45h-31.705-31.704l-.004 3.65c-.005 4.126-.159 4.749-1.452 5.885-1.248 1.095-1.266 1.096-20.26 1.028l-17.416-.063-.968-.6c-1.71-1.059-1.9-1.674-1.9-6.131v-3.769h-31.806-31.806z" fill-rule="evenodd"/>
</svg>
